<svg width="741" height="383" viewBox="0 0 741 383" fill="none" xmlns="http://www.w3.org/2000/svg">
<rect y="3" width="738" height="377" fill="#16111D"/>
<path d="M376.92 180.98C376.86 180.93 378.83 178.98 380.93 176.39C384.43 172.08 385.31 169.68 388.19 164.93C388.71 164.08 388.75 164.03 397.36 152.13C403.18 144.08 403.66 143.4 405 141.81C408.38 137.79 410.96 134.77 415.13 131.88C418.14 129.79 418.78 129.98 424.3 126.91C424.74 126.67 430.51 123.44 435.57 119.84C439.35 117.15 445.23 112.97 450.47 106.27C456.1 99.0799 458.45 92.2499 460.6 85.8299C463.81 76.2199 462.24 75.8399 465.19 65.1999C467.56 56.6199 470.45 46.5899 478.37 36.7299C480.28 34.3499 484.2 29.8599 490.22 25.4599C492.72 23.6299 497.69 20.0499 504.93 17.4399C509.28 15.8699 510.5 16.0799 516.78 14.1899C521.47 12.7799 525.25 11.5899 529.39 9.59994C532.91 7.90994 537.85 5.04994 543.1 0.189941H600.18C600.18 0.539941 600.19 1.06994 600.18 1.70994C600.13 4.56994 600.02 10.2499 597.31 16.0399C595.4 20.0999 592.95 22.6399 591.06 24.5499C584.32 31.3399 576.66 33.7999 572.74 34.9999C567.87 36.4999 564.31 36.8099 557.76 37.3699C549.25 38.0999 547.72 37.3899 536.21 37.7999C527.2 38.1199 522.59 38.3099 517.57 39.6299C514.11 40.5399 508.27 42.1299 502.06 46.5299C499.28 48.4999 493.3 53.2299 489.02 61.2899C486.42 66.1899 485.33 70.6599 484.82 72.8199C483.74 77.3599 484.11 78.5299 482.99 84.3499C482.24 88.2099 481.51 91.9899 479.76 96.4199C478.72 99.0399 476.21 104.69 471.14 110.53C466.78 115.56 462.52 118.44 459.83 120.23C458.01 121.44 454.39 123.28 447.22 126.91C440.61 130.26 438.91 131.03 433.32 133.91C428.44 136.43 426 137.69 423.84 138.97C417.95 142.46 413.86 145.72 411.13 147.91C405.97 152.05 401.59 156.41 392.81 165.15C388.88 169.06 385.05 172.91 385.05 172.91C380.17 177.81 377 181.04 376.93 180.97L376.92 180.98Z" fill="#362C41" fill-opacity="0.5"/>
<path d="M372.46 182.2C372.67 182.25 373.41 179.71 375.52 171.88C379.2 158.26 378.96 158.53 379.83 155.88C382.32 148.29 385.3 142.88 387.89 138.18C390.15 134.08 392.72 129.41 396.97 124C402.88 116.48 404.89 116.62 410.81 109.59C415.43 104.11 419.93 98.7699 422.38 90.6399C425.65 79.8299 423.47 70.1599 422.83 67.4899C421.83 63.2899 419.57 56.7099 417.5 51.4899C416.28 48.4099 416.2 48.5299 415.68 46.9499C414.8 44.2599 412.81 37.9499 414.2 30.1599C414.95 25.9399 416.42 22.8299 417.15 21.4199C420.87 14.2399 426.47 10.5599 430.31 8.02988C436.78 3.76988 443.16 1.81988 447.9 0.879883H398.77C398.27 1.52988 397.77 2.20988 397.3 2.91988C396.11 4.69988 392.27 10.8099 391.29 19.9399C391.1 21.7299 391.08 23.0599 391.06 24.2499C391.03 26.9099 391.16 31.8499 392.99 39.4499C393.87 43.1199 394.86 45.9799 396.85 51.6999C399.92 60.5699 400.54 60.9599 401.62 65.3199C402.2 67.6799 403.28 72.1899 403.32 78.1399C403.38 86.8399 401.19 93.2499 400.71 94.5899C398.76 100.11 396.19 103.88 393.56 107.75C390.07 112.89 389.57 112.33 385.73 117.96C382.95 122.04 380.5 125.69 378.7 131.01C377.64 134.13 377.23 136.56 376.66 139.97C376.44 141.25 375.95 144.41 375.41 153.02C375.1 158.05 375.14 159.03 374.96 161.98C374.23 174 372.09 182.09 372.46 182.18V182.2Z" fill="#291E36" fill-opacity="0.5"/>
<path d="M369.36 182.77C369.63 182.66 368.81 180.4 366.41 171.82C363.93 162.96 362.7 158.52 361.99 154.55C360.62 146.89 360.55 140.79 360.52 137.28C360.48 132.2 360.44 128.06 361.36 122.74C362.83 114.24 364.81 113.97 366.84 105.04C367.89 100.4 369.31 93.8802 368.1 85.6602C367.8 83.6002 366.81 77.8602 363.47 71.3402C360.67 65.8702 357.51 62.3802 353.99 58.4902C349.67 53.7102 348.87 53.8502 342.83 47.5402C338.47 42.9802 336.29 40.7002 334.19 37.4302C332.24 34.3802 329.45 29.9302 328.5 23.5302C328.07 20.6402 327.36 15.8902 329.55 10.4702C331.56 5.50016 334.95 2.54016 336.71 1.20016L303 0.910156C302.68 1.37016 302.09 2.29016 301.53 3.52016C295.31 17.1802 308.73 36.0702 312.69 41.6502C314.24 43.8302 317.51 48.1802 321.96 53.0302C324.63 55.9402 325.49 56.5902 329.33 60.6102C333.78 65.2702 336.74 68.3602 339.23 71.5602C341.42 74.3702 345.87 80.2002 348.5 88.6202C352.22 100.54 350.33 111.37 349.97 113.27C349.27 117.04 348.46 118.83 348.28 123.17C348.14 126.6 348.45 130.54 350.18 137.07C352.18 144.66 354.62 150.14 356.29 153.92C366.45 176.87 368.9 182.96 369.35 182.78L369.36 182.77Z" fill="#362C41" fill-opacity="0.5"/>
<path d="M366.63 183.39C366.74 183.27 364.22 181.02 360.05 176.62C355.15 171.45 351.77 167.3 348.96 163.83C343.31 156.87 340.49 153.4 337.11 148.03C334.08 143.22 331.38 138.93 329.02 132.61C328.11 130.16 326.71 124.74 323.94 113.99C321.81 105.72 321.83 105.55 321.31 104.21C320.71 102.66 317.91 95.6699 311.16 88.5999C306.28 83.4899 301.83 80.9599 294.42 76.7499C288.79 73.5499 284.08 71.4499 274.86 67.3499C266.55 63.6499 264.91 63.2399 261.13 60.7699C255.27 56.9399 251.47 52.8899 249.28 50.2399C246.17 46.4699 243.85 43.6499 242.7 39.3299C241.88 36.2399 241.71 32.5699 243.64 25.4099C245.16 19.7999 248.19 11.2099 254.73 1.52986L205.65 0.859863C205.94 1.27986 206.34 1.89986 206.78 2.65986C206.78 2.65986 208.54 5.68986 209.6 9.04986C210.9 13.1699 210.37 18.1699 210.16 21.4599C209.78 27.5299 209.44 32.9099 210.91 38.3799C212.71 45.0699 216.49 49.2599 221.44 54.7399C226.77 60.6499 231.87 64.1599 235.17 66.3999C238.92 68.9499 243.36 71.1999 252.09 75.6099C254.19 76.6699 259.8 79.4899 269.39 84.0699C282.13 90.1599 283.18 90.4199 286.69 92.7199C294.05 97.5399 298.47 102.31 299.66 103.63C304.54 109.01 307.31 113.97 308.31 115.85C309.76 118.57 310.84 121.36 313.01 126.94C316.2 135.14 316.39 136.95 318.65 140.48C320.02 142.62 321.51 144.4 325.23 148C332.91 155.44 339.58 160.5 340.46 161.16C355.96 172.93 366.36 183.61 366.6 183.35L366.63 183.39Z" fill="#291E36" fill-opacity="0.5"/>
<path d="M365.83 186.24C365.94 185.97 360.79 183.76 348.9 177.87C340.69 173.8 336.58 171.76 331.2 168.74C324.93 165.21 319.38 162.06 312.55 156.94C309.39 154.57 304.1 150.57 298.09 144.38C293.24 139.38 292.8 137.98 288.39 133.15C285.04 129.48 279.36 123.27 271.08 117.93C259.7 110.59 248.71 108.31 243.49 107.27C241.87 106.95 236.77 106.36 226.56 105.18C210.18 103.28 210.07 103.54 206.39 102.71C196.28 100.42 189.09 96.6799 184.7 93.9599C179.47 90.7199 176.01 88.5199 173.28 84.0699C170.58 79.6699 170 75.3499 169.28 69.6099C168.35 62.1299 169.36 60.2999 168.9 54.5799C168.64 51.2699 167.91 42.2399 162.24 34.2199C154.51 23.2999 141.86 20.3099 137.12 19.1899C134.34 18.5299 132.16 18.3099 127.8 17.8599C120.52 17.1099 116.23 17.3099 104.59 17.4799C93.4701 17.6399 87.8302 17.7199 84.0402 17.4799C75.1202 16.9199 70.6602 16.7199 65.7702 15.0099C61.6502 13.5599 54.3402 10.1499 47.2602 1.35986H2.16016V52.5499C2.74016 53.1199 3.61016 53.9199 4.74016 54.7899C8.21016 57.4499 13.9702 60.5799 26.4302 61.3299C35.7402 61.8899 42.7902 60.7599 50.7002 59.4399C60.8602 57.7499 60.9802 56.7999 70.5002 55.3099C79.3602 53.9199 85.7102 52.9299 94.0802 53.7599C98.9602 54.2499 107.7 55.2099 117.32 60.6499C120.29 62.3299 126.98 66.4899 132.99 74.0799C138.45 80.9799 137.79 83.6899 141.77 89.9199C149.87 102.6 163.2 107.95 172.76 111.78C182.27 115.6 190.21 116.83 199.79 118.32C211.77 120.18 212.22 118.97 224.92 120.9C232.48 122.05 242.12 123.57 253.84 127.96C260.5 130.45 265.92 132.48 272.26 136.91C280.05 142.36 280.32 145.21 288.79 152.23C296.45 158.58 303.25 162.07 308.59 164.8C316.43 168.81 319.25 169.22 336.13 175.3C354.7 181.99 365.66 186.67 365.83 186.27V186.24Z" fill="#362C41" fill-opacity="0.5"/>
<path d="M365.4 188.09C365.42 187.84 360.07 187.26 349.87 185.79C345.84 185.21 334.66 183.59 326.75 182.11C308.15 178.62 294.16 173.36 291.46 172.32C278.72 167.45 279.77 166.17 264.48 159.87C249.33 153.63 241.75 150.51 232.46 149.49C220.87 148.22 211.2 150.13 193.32 153.64C182.45 155.78 180 157.01 171.97 157.49C164.99 157.91 155.91 158.37 145.28 154.52C140.67 152.85 132.31 149.83 125.71 142.07C121.72 137.37 122.66 135.99 116.81 126.95C112.47 120.24 109.48 115.61 104.36 111.23C94.7998 103.07 84.1098 101.17 80.3398 100.56C71.3398 99.08 64.3998 100.39 57.2098 101.75C47.1798 103.64 42.9498 106.07 33.4898 109.16C26.2398 111.54 15.5598 114.42 1.75977 115.98V165.2C3.24977 164.38 5.51977 163.14 8.27977 161.64C24.2298 152.99 32.2098 148.67 36.4498 147.11C50.1498 142.08 62.0598 142.78 64.6198 142.96C77.8798 143.91 87.2298 148.72 89.2298 149.78C95.9698 153.36 95.3398 154.77 104.06 160.45C109.27 163.85 118.03 169.56 129.86 172.61C138.57 174.85 145.2 174.68 156.55 174.39C166.6 174.13 174.2 173.02 182.94 171.72C200.26 169.14 201.43 167.57 212.89 166.68C223.98 165.81 232.77 166.51 237.21 166.98C245.32 167.83 256.33 168.99 268.94 174.39C275.59 177.24 277.21 178.92 284.36 181.21C289.98 183.01 295.12 183.93 303.04 184.77C314.43 185.98 320.83 185.88 331.8 186.25C352.17 186.94 365.37 188.47 365.4 188.08V188.09Z" fill="#291E36" fill-opacity="0.5"/>
<path d="M364.93 191.54C364.9 191.38 363.82 191.49 345.37 194.39C326.45 197.37 327.59 197.26 325.68 197.5C313.7 199 304.75 198.77 291.1 198.41C279.5 198.1 270.52 197.33 264.66 196.81C244.29 195.01 245.95 193.9 237.7 193.91C231.91 193.91 215.71 194.09 198.71 202.62C191.2 206.39 192.65 207.21 183.36 212.16C175.01 216.61 165.08 221.9 151.42 223.36C146.94 223.84 133.84 225.09 119.48 219.21C105.85 213.64 107.11 208.2 92.9302 200.96C87.4902 198.18 70.9602 189.73 52.2802 193.91C41.5702 196.3 33.1002 202.19 25.3202 207.6C22.3602 209.66 18.7602 213.61 12.0502 218.39C7.44021 221.67 3.43021 224.07 0.720215 225.61V286.49C1.85021 286 3.60021 285.18 5.62021 283.97C12.5702 279.81 15.7402 275.2 23.3902 265.78C29.4102 258.36 32.4302 254.65 35.7102 251.5C39.6702 247.71 43.5702 243.97 49.2902 240.86C59.9702 235.06 70.2902 235.1 76.4402 235.12C85.9602 235.16 93.2202 237.17 101.49 239.46C110.32 241.91 111.33 243.12 116.81 244.64C132.95 249.12 147.57 244.97 156.05 242.57C161.79 240.94 163.33 239.94 189.78 226.39C218.79 211.52 221.2 210.54 225.92 209.53C237.18 207.11 248.12 207.42 261.71 207.81C273.68 208.15 275.1 209.07 283.74 208.84C294.44 208.56 301.87 206.91 315.75 203.68C347.07 196.39 365.11 192.19 364.96 191.54H364.93Z" fill="#362C41" fill-opacity="0.5"/>
<path d="M366.43 193.59C366.25 193.27 360.39 196.3 342.47 204.71C330.44 210.35 326.67 212.02 323.56 213.3C318.82 215.26 311.03 218.46 301.52 221.29C289.71 224.8 287.48 223.98 268.14 227.83C251.51 231.14 243.2 232.8 237.71 235.68C223.12 243.35 213.36 255.94 212.84 256.62C210.24 260.04 209.27 261.98 205.31 266.76C200.96 272.01 196.63 277.24 190.59 281.48C179.66 289.15 168.04 290.13 164.74 290.31C158.44 290.66 156.75 289.49 134.31 283.77C112.02 278.08 108.5 277.91 106.17 277.88C99.92 277.8 87.74 277.8 76.39 285.41C68.78 290.51 64.25 297.22 62.32 300.13C58.89 305.31 59.2 306.72 52.83 317.8C48.19 325.87 46 328.64 44.65 330.23C41.97 333.4 38.94 337 33.85 340.05C27.81 343.67 22.21 344.49 18.8 344.96C11.04 346.03 4.46 344.91 0 343.69V382.47H79.19C79.85 381.51 80.82 380.01 81.82 378.09C85.33 371.37 85.85 365.99 86.95 359.95C88.62 350.75 89.52 345.78 92.26 340.23C93.11 338.5 96.77 331.4 104.54 325.18C112.12 319.12 119.59 317.11 125.14 315.67C133.85 313.42 137.7 314.17 150.49 313.29C164.7 312.32 171.81 311.83 178.61 309.73C194.04 304.95 204.25 294.56 214.26 284.38C221.42 277.09 222.07 274.81 233.67 262.99C243.62 252.85 247.78 249.82 251.49 247.54C260.09 242.27 268.18 239.93 272.09 238.83C280.04 236.59 280.75 237.55 289.91 235.27C292.03 234.74 301.42 232.33 311.3 227.74C319.99 223.7 323.06 220.76 333.88 213.48C352.94 200.64 366.72 194.06 366.46 193.56L366.43 193.59Z" fill="#291E36" fill-opacity="0.5"/>
<path d="M367.13 194.57C366.92 194.41 364.25 197.24 358.92 202.91C354.78 207.31 352.68 209.63 349.79 212.72C345.95 216.82 342.97 220.01 339.26 223.64C333.12 229.67 329.6 233.11 324.43 236.71C322.71 237.91 321.58 238.58 310.19 244.51C294.38 252.74 293.48 253.04 289.71 255.24C280.28 260.73 275.56 263.48 271.76 267.53C260.97 279.04 258.24 295.11 257.52 299.33C256.83 303.37 256.53 307.48 254.4 313.77C253.24 317.21 251.64 321.94 248.35 326.65C241.18 336.93 230.43 340.73 226.5 342.06C221.97 343.59 216.13 343.95 204.65 344.6C185.65 345.67 183.22 344.46 174.02 346.55C162.71 349.12 156.82 353.13 155.1 354.35C151.88 356.64 146.92 360.26 143.59 367.03C140.69 372.92 140.39 379.8 140.46 382.86H198.16C198.65 382.32 199.35 381.57 200.24 380.71C200.24 380.71 204.17 376.93 209.1 374.16C215.59 370.52 224.72 368.82 232.71 366.09C237.92 364.31 247.44 361.05 256.02 353.24C263.31 346.6 266.86 339.46 268.87 335.31C272.56 327.71 271.8 325.64 277.83 302.44C281.27 289.2 282.45 286.3 284.4 283.02C288.78 275.66 294.23 271.15 298.74 267.48C306.81 260.92 308.9 261.72 319.96 253.73C324.65 250.35 329.62 246.72 334.9 241.18C339.89 235.95 341.69 232.62 348.05 222.95C359.93 204.86 367.72 195.01 367.14 194.56L367.13 194.57Z" fill="#362C41" fill-opacity="0.5"/>
<path d="M369.83 193.4C369.67 193.37 369.46 194.36 367.33 202.38C367.33 202.38 366.24 206.45 364.94 211.25C363.26 217.4 362.43 220.48 361.87 222.2C360.19 227.38 358.45 230.96 356.34 235.3C353.58 240.99 350.95 246.4 346.62 252.39C342.02 258.75 341.2 257.89 334.24 266.31C328.53 273.2 325.21 277.22 322.39 283.46C320.73 287.14 317.76 293.89 317.82 302.59C317.85 306.39 319.92 313.35 324.06 327.12C327.05 337.08 327.62 338.44 327.8 341.88C327.98 345.24 328.28 352.7 323.85 360.38C320.1 366.89 314.7 369.96 308.26 373.69C301.57 377.56 295.48 379.54 291.45 380.59H342.48C343.12 379.99 344.01 379.08 344.94 377.87C345.97 376.53 349.17 372.05 350.12 361.06C350.32 358.79 350.76 352.26 349.28 343.35C348.76 340.24 347.66 336.24 345.47 328.38C341.54 314.23 341.36 314.87 340.65 311.12C339.52 305.17 338.23 298.35 339.89 290.06C341.37 282.65 344.56 277.36 347.76 272.04C351.97 265.05 353.01 265.69 356.9 259.1C358.56 256.29 362.43 249.27 364.77 239.81C365.87 235.35 365.85 233.49 366.8 223.57C368.61 204.65 370.39 193.49 369.85 193.4H369.83Z" fill="#291E36" fill-opacity="0.5"/>
<path d="M372.88 193.88C372.38 194.03 376.13 205.11 378.97 221.54C380.66 231.32 381.77 238 381.25 247.17C380.77 255.57 379.11 262.89 378.46 265.7C376.34 274.86 375.29 274.51 374.4 280.16C373.93 283.13 372.45 293.32 376.94 304.52C380.04 312.26 384.75 317.37 388.11 321.01C391.76 324.98 392.14 324.42 396.99 329.38C402.05 334.56 406.17 338.78 409.42 345.37C411.31 349.2 413.63 353.89 413.48 360.34C413.45 361.56 413.19 367.78 409.17 374.3C407.42 377.13 405.49 379.15 404.05 380.47H440.09C440.57 379.76 441.22 378.71 441.79 377.34C442.58 375.46 444.19 370.7 441.51 360.77C439.87 354.68 437.32 349.29 434.16 344.3C433.26 342.88 431.22 339.75 421.2 328.74C412.81 319.51 411.1 318.25 405.73 311.81C400.41 305.43 397.71 302.14 395.7 297.59C392.76 290.95 392.26 285.09 391.94 280.87C391.39 273.68 392.68 266.28 393.19 262.89C393.63 259.99 394.14 257.48 394.24 253.48C394.28 251.88 394.35 248.22 393.61 244.07C392.72 239.04 391.06 235.62 389.22 231.74C385.07 223 381.43 214.97 379.81 211.25C375.17 200.62 373.27 193.74 372.88 193.86V193.88Z" fill="#362C41" fill-opacity="0.5"/>
<path d="M374.17 193.01C374.04 193.15 375.32 194.4 379.95 199.58C380.97 200.73 382.94 202.94 385.07 205.4C385.8 206.24 388.02 208.83 391.31 212.87C397.45 220.41 400.52 224.17 403.12 228.04C405.36 231.38 407.99 235.33 410.54 241.07C410.89 241.85 412.52 245.55 414.18 251.01C416.26 257.86 416.96 262.79 417.4 265.16C419.83 278.14 428.49 288.17 430.15 290.09C436.79 297.78 444.01 301.14 458.22 307.76C470.04 313.26 473.75 313.21 482.17 319.15C492.39 326.36 495.55 332.53 496.3 334.07C497.4 336.33 500.78 343.48 499.44 352.13C499.1 354.33 498.55 356.04 492.37 369.01C490.27 373.42 488.1 377.96 486.86 380.51H536.58C536.36 380.07 536.01 379.41 535.59 378.6C534.11 375.8 533.24 374.32 532.94 373.74C531.75 371.49 532.11 369.66 532.17 364.46C532.22 359.68 531.92 361.62 531.82 353.6C531.73 346.17 532 344.89 531.25 341.93C531.09 341.31 530.45 338.85 528.4 335.1C527.54 333.52 524.07 327.38 515.3 319.73C510.1 315.19 505.64 312.4 502.77 310.62C497.71 307.48 493.7 305.59 485.69 301.8C478.24 298.28 478.16 298.53 472.17 295.62C464.76 292.02 460.78 290.08 455.81 286.69C451.92 284.04 447.27 280.87 442.54 275.36C437.1 269.03 434.29 262.81 433.04 259.98C430.29 253.75 430.71 252.08 427.27 245.39C426.54 243.97 424.59 240.29 421.5 235.89C418.23 231.24 415.25 228.01 414.04 226.73C411.32 223.87 409.1 221.96 406.98 220.16C397.08 211.75 389.43 205.42 388.1 204.31C379.07 196.84 374.4 192.75 374.16 193.01H374.17Z" fill="#291E36" fill-opacity="0.5"/>
<path d="M376.16 192.35C376.09 192.54 378.97 193.63 384.58 196.3C388.87 198.34 391.74 199.87 402.21 205.55C411.1 210.37 415.55 212.78 415.84 212.95C421.39 216.24 429.55 221.13 438.31 229.05C444.23 234.41 448.3 239.22 453.09 244.89C460.76 253.96 459.47 253.86 462.94 257.21C472.4 266.3 484.08 269.09 491.8 270.93C493.78 271.4 500.51 272.3 513.97 274.1C526.22 275.73 527.15 275.71 531.57 276.56C540.33 278.25 546.91 279.58 554.44 283.6C559.21 286.14 563.78 288.58 567.46 293.81C570.81 298.56 571.66 303.13 572.74 309.29C574.69 320.44 572.54 323.37 574.15 331.46C574.48 333.13 576.45 342.41 582.95 349.76C594.08 362.34 613 363 626.21 363.47C634.15 363.75 636.72 362.9 649.78 363.47C662.06 364 667.34 365.08 671.11 366.09C681.47 368.86 685.59 370.88 688.32 373.2C691.42 375.84 693.36 378.69 694.52 380.71H740.51V329.48C739.76 328.9 738.64 328.08 737.24 327.19C734.31 325.34 728.56 322.22 719.44 320.83C714.18 320.03 708.53 319.91 688.61 322.9C672.46 325.32 674.24 325.69 667.16 326.4C654.39 327.67 645.2 328.59 634.26 324.97C630.49 323.72 619.91 320.08 611.53 310.35C604 301.6 607.31 298.44 599.77 288.58C590.7 276.71 578.36 271.42 573.08 269.16C567.27 266.67 562.73 265.61 555.92 264.01C546.66 261.84 541.88 261.64 528.03 259.72C516.36 258.1 510.53 257.29 506.15 256.29C495.42 253.84 480.05 250.34 466.67 239.13C461.61 234.89 461.38 233.35 453.8 227.11C444.33 219.32 437.34 215.68 435.35 214.67C434.29 214.13 432.97 213.49 422.77 209.4C413.09 205.52 408.25 203.58 401.98 201.23C390.74 197.01 376.33 191.96 376.17 192.37L376.16 192.35Z" fill="#362C41" fill-opacity="0.5"/>
<path d="M377.55 190.87C377.55 190.97 381.1 191.09 387.09 191.89C391.04 192.42 393.58 192.91 396.82 193.5C406.99 195.35 407.96 195.22 414.71 196.46C417.78 197.03 424.41 198.27 432.12 200.37C446.93 204.4 457.63 209.39 460.41 210.72C471.76 216.13 470.42 217.23 479.24 221.33C482.7 222.94 496.18 228.94 514.26 230.08C525.2 230.77 533.6 229.42 549.55 226.86C561.43 224.95 561.01 224.23 568.17 223.64C577.99 222.83 589.12 222.04 601.12 227.58C608.6 231.04 613.39 235.56 615.09 237.25C622.78 244.93 622.2 249.73 628.34 258.74C630.73 262.25 639.13 274.56 653.77 279.51C664.11 283.01 673.64 281.5 681.7 280.23C684.37 279.81 687.07 279.24 701.75 274.86C712.38 271.69 715.86 269.88 723.95 268.06C730.59 266.57 736.11 265.96 739.63 265.67V216.78C738.71 217.33 737.38 218.12 735.77 219.07C730.32 222.27 724.37 225.78 719.61 228.23C715.03 230.59 709.46 233.46 701.69 235.64C697.89 236.7 691.1 238.55 682.02 238.47C678.07 238.43 670.57 238.3 661.95 235.1C658.97 233.99 657.08 232.97 641.47 222.57C628.53 213.94 627.45 213.06 624.09 211.52C616.2 207.9 609.58 207.02 602.54 206.13C586.9 204.16 574.05 206.04 564.15 207.48C556.7 208.56 553.82 209.44 542.87 210.85C536.49 211.67 531.89 212.26 525.76 212.6C515.95 213.15 507.52 213.61 497.07 211.52C489.42 209.99 483.39 207.62 477.54 205.32C468.86 201.91 468.27 200.77 461.78 198.58C459 197.65 453.74 196.05 440.5 194.4C431.96 193.34 425.45 192.92 415.18 192.38C395.48 191.33 377.57 190.64 377.56 190.87H377.55Z" fill="#291E36" fill-opacity="0.5"/>
<path d="M380.01 187.8C380.05 187.96 385.12 186.71 393.21 185.51C399.04 184.65 403.2 184.29 409.64 183.76C414.66 183.34 423.37 182.7 435.37 182.28C447.57 181.86 453.76 181.66 458.54 182.28C464.12 183.01 465.22 183.72 475.38 185.38C481.02 186.3 485.88 187.09 491.28 187.54C496.83 187.99 506.92 188.75 519.57 186.33C531.77 183.99 540.51 179.82 542.87 178.65C552.45 173.92 552.1 171.86 561.82 167.13C571.39 162.47 579.75 160.56 584.52 159.72C592.05 158.39 599.51 157.06 608.61 159.26C614.15 160.6 618.17 162.93 626.21 167.6C638.67 174.83 639.35 177.4 648.91 182.42C654.98 185.61 661.47 189.02 670.68 190.29C675.5 190.96 686.85 191.85 698.93 186.58C705.68 183.64 707.52 181.02 719.31 172.22C728.01 165.73 735.36 160.93 740.04 157.98L740.14 96.9199C738.92 97.5999 737.15 98.6399 735.1 100.02C728.31 104.62 724.1 109.27 715.01 119.95C704.51 132.29 704.5 132.69 701.85 134.86C699.23 137.01 693.74 141.11 685.77 144.22C683.3 145.18 675.43 148.06 664.72 148.31C662.67 148.36 656.72 148.38 643.96 145.39C628.2 141.69 628.12 139.51 619.1 137.79C604.2 134.95 591.53 138.47 581.38 141.3C569.42 144.63 559.74 149.58 556.52 151.24C551.26 153.96 549.9 155.11 541.61 159.43C534.6 163.08 529.61 165.68 523.19 168.2C518.12 170.19 511.21 172.91 502.14 174.34C491.53 176.02 482.9 175.16 471.73 174.05C459.84 172.87 459.03 171.71 451.85 172C447.27 172.19 445.02 172.77 431.09 175.8C412.44 179.86 416.12 178.91 407.99 180.77C394.06 183.97 379.98 187.52 380.05 187.8H380.01Z" fill="#362C41" fill-opacity="0.5"/>
<path d="M376.23 185.8C376.14 185.62 381.86 182.79 390.33 177.68C397.17 173.55 398.27 172.48 411.6 163.82C422.7 156.61 425.3 155.16 428.45 153.66C435.79 150.17 441.37 148.63 442.82 148.25C449.12 146.57 450 147.22 456.98 145.75C464.85 144.1 470.51 141.86 476.97 139.3C484.59 136.28 488.41 134.77 493.21 131.6C498.22 128.29 501.39 125.13 505.29 121.19C513.13 113.27 512.98 111.33 521.11 102.45C527.26 95.74 532.57 91.15 535.89 88.29C542.08 82.97 545.17 80.32 549.42 77.88C557.89 73.03 565.59 71.56 570.87 70.59C578.07 69.27 583.81 69.24 595.29 69.16C605.92 69.09 606.71 69.69 611.9 68.9C620.65 67.57 627.14 64.53 630.58 62.67C635.11 60.23 639.44 57.89 643.3 53.07C646.53 49.03 647.75 45.31 650.05 38.02C653.09 28.39 652.62 25.53 654.98 17.52C656.22 13.32 658.4 7.18 662.39 0H740.52V40.17C739.55 40.01 738.12 39.79 736.38 39.57C732.38 39.06 728.53 38.78 726.77 38.73C718.32 38.53 710.17 42.81 708.32 43.78C701.13 47.55 696.8 52.33 695.31 54.07C691.88 58.08 691.7 59.83 686.38 69.8C681.09 79.7 678.45 84.65 674.92 88.64C672.69 91.16 667.45 96.97 658.61 100.88C650.73 104.37 643.94 104.59 638.8 104.76C629.57 105.07 622.29 103.3 618.8 102.43C615.37 101.57 615.55 101.37 606.76 98.74C598.89 96.39 594.96 95.22 592.19 94.66C587.07 93.63 579.36 92.09 569.85 93.88C563.23 95.13 558.15 97.54 555.67 98.74C554.91 99.11 551.2 100.92 547.32 103.6C538.07 109.99 535.59 115.97 526.34 126.32C520.36 133.02 516.39 137.46 509.64 141.86C500.31 147.94 491.32 150.24 486.72 151.38C479.8 153.09 479.9 152.15 465.94 154.29C454.29 156.08 445.53 158.07 441.08 159.15C433.75 160.91 428.61 162.15 421.85 164.59C417.17 166.28 414.45 167.55 400.87 174.11C383.37 182.56 376.34 186.02 376.24 185.82L376.23 185.8Z" fill="#291E36" fill-opacity="0.5"/>
</svg>
